<svg width="25" height="23" viewBox="0 0 25 23" fill="none" xmlns="http://www.w3.org/2000/svg">
<path d="M18.7205 10.556C18.5509 10.2898 18.3082 10.0681 18.0158 9.91231C17.7235 9.75652 17.3916 9.67204 17.0525 9.66709H4.4937L3.92462 7.65828C3.86713 7.46436 3.73885 7.29379 3.56069 7.17436C3.38253 7.05492 3.16498 6.99365 2.94347 7.00052H0.981156C0.720937 7.00052 0.471376 7.09417 0.287374 7.26086C0.103371 7.42755 0 7.65364 0 7.88938C0 8.12512 0.103371 8.3512 0.287374 8.5179C0.471376 8.68459 0.720937 8.77824 0.981156 8.77824H2.19779L4.90578 17.8979C4.96328 18.0918 5.09155 18.2624 5.26971 18.3818C5.44788 18.5013 5.66543 18.5625 5.88694 18.5557H14.7173C14.8985 18.5552 15.076 18.5092 15.2302 18.4229C15.3843 18.3367 15.509 18.2134 15.5906 18.0668L18.8088 12.2359C18.9483 11.971 19.0132 11.679 18.9978 11.3859C18.9824 11.0927 18.8871 10.8076 18.7205 10.556Z" fill="white"/>
<path d="M5.39652 22.9998C6.20933 22.9998 6.86824 22.4029 6.86824 21.6665C6.86824 20.9302 6.20933 20.3333 5.39652 20.3333C4.58371 20.3333 3.9248 20.9302 3.9248 21.6665C3.9248 22.4029 4.58371 22.9998 5.39652 22.9998Z" fill="white"/>
<path d="M15.2076 22.9998C16.0204 22.9998 16.6793 22.4029 16.6793 21.6665C16.6793 20.9302 16.0204 20.3333 15.2076 20.3333C14.3947 20.3333 13.7358 20.9302 13.7358 21.6665C13.7358 22.4029 14.3947 22.9998 15.2076 22.9998Z" fill="white"/>
<path d="M21.5 1V6" stroke="white" stroke-linecap="round"/>
<path d="M24 3.5L19 3.5" stroke="white" stroke-linecap="round"/>
</svg>
