<svg width="41" height="41" viewBox="0 0 41 41" fill="none" xmlns="http://www.w3.org/2000/svg">
<path d="M38.5335 0H2.7513C2.1625 0 1.59783 0.233897 1.18149 0.650237C0.765147 1.06658 0.53125 1.63125 0.53125 2.22005V38.0028C0.531398 38.5915 0.765361 39.156 1.18168 39.5722C1.59801 39.9885 2.1626 40.2223 2.7513 40.2223H22.015V24.6462H16.7732V18.576H22.015V14.099C22.015 8.90365 25.1881 6.07524 29.8226 6.07524C32.0426 6.07524 33.9504 6.24004 34.5068 6.31434V11.7438L31.2924 11.7455C28.7718 11.7455 28.2841 12.9432 28.2841 14.7007V18.5765H34.2951L33.5124 24.6468H28.2841V40.2223H38.534C39.1227 40.2221 39.6873 39.9882 40.1035 39.5718C40.5197 39.1555 40.7535 38.5909 40.7535 38.0022V2.22005C40.7535 1.63125 40.5196 1.06658 40.1033 0.650237C39.687 0.233897 39.1223 0 38.5335 0Z" fill="#0D8BFF"/>
</svg>
