<svg width="41" height="41" viewBox="0 0 41 41" fill="none" xmlns="http://www.w3.org/2000/svg">
<path d="M30.5771 17.7584C30.5771 23.2996 26.085 27.7917 20.5438 27.7917C15.0027 27.7917 10.5106 23.2996 10.5106 17.7584C10.5106 16.197 10.8776 14.725 11.5134 13.4077H0.432129V36.8707C0.432129 39.0215 2.19185 40.7812 4.34263 40.7812H36.7439C38.8947 40.7812 40.6544 39.0215 40.6544 36.8707V13.4077H29.5737C30.2328 14.7635 30.5758 16.251 30.5771 17.7584Z" fill="#0D8BFF"/>
<path d="M36.7439 0H4.34263C2.19185 0 0.432129 1.75973 0.432129 3.9105V11.7315H12.5351C14.3664 9.30196 17.2668 7.72491 20.5433 7.72491C23.8197 7.72491 26.7202 9.30196 28.5514 11.7315H40.6544V3.9105C40.6544 1.75973 38.8947 0 36.7439 0ZM3.64768 9.89692H2.19185V4.25742C2.19181 3.78937 2.33 3.33173 2.5891 2.94194C2.8482 2.55215 3.21666 2.24756 3.64824 2.06642V9.89692H3.64768ZM6.03308 9.89692H4.65379V1.88151H6.03308V9.89692ZM8.41793 9.89692H7.03864V1.88151H8.41793V9.89692ZM10.8011 4.25742V9.89692H9.42348V1.88151H10.8011V4.25742ZM38.6159 7.52101C38.616 7.83294 38.5546 8.14184 38.4353 8.43006C38.316 8.71828 38.1411 8.98018 37.9206 9.2008C37.7001 9.42142 37.4383 9.59645 37.1501 9.71589C36.8619 9.83533 36.5531 9.89684 36.2411 9.89692H32.3815C32.0695 9.89692 31.7606 9.83546 31.4723 9.71605C31.1841 9.59664 30.9222 9.42163 30.7016 9.201C30.4811 8.98036 30.3061 8.71844 30.1868 8.43019C30.0674 8.14193 30.006 7.83299 30.0061 7.52101V4.25742C30.006 3.94544 30.0674 3.63649 30.1868 3.34824C30.3061 3.05998 30.4811 2.79806 30.7016 2.57743C30.9222 2.3568 31.1841 2.18178 31.4723 2.06237C31.7606 1.94297 32.0695 1.88151 32.3815 1.88151H36.2411C36.5531 1.88151 36.862 1.94297 37.1502 2.06239C37.4384 2.1818 37.7002 2.35683 37.9208 2.57746C38.1413 2.7981 38.3162 3.06003 38.4355 3.34828C38.5548 3.63653 38.6161 3.94546 38.6159 4.25742V7.52101Z" fill="#0D8BFF"/>
<path d="M20.5438 26.618C25.4241 26.618 29.3804 22.66 29.3804 17.7808C29.3804 12.9011 25.4246 8.94312 20.5438 8.94312C15.6624 8.94312 11.7061 12.9011 11.7061 17.7808C11.7061 22.6595 15.6624 26.618 20.5438 26.618ZM20.5432 10.7397C24.4314 10.7397 27.5844 13.8921 27.5844 17.7808C27.5844 21.669 24.4319 24.822 20.5432 24.822C16.6545 24.822 13.5021 21.6696 13.5021 17.7808C13.5027 13.8916 16.6551 10.7397 20.5432 10.7397Z" fill="#0D8BFF"/>
</svg>
