<svg width="41" height="41" viewBox="0 0 41 41" fill="none" xmlns="http://www.w3.org/2000/svg">
<path d="M37.243 0H2.96919C1.33013 0 0 1.29884 0 2.89824V37.3201C0 38.9218 1.33013 40.2223 2.96919 40.2223H37.243C38.8832 40.2223 40.2223 38.9218 40.2223 37.3201V2.89824C40.2223 1.29884 38.8832 0 37.243 0ZM11.9293 34.275H5.96072V15.0806H11.9293V34.275ZM8.94499 12.4561C8.49069 12.4561 8.04084 12.3665 7.62115 12.1926C7.20146 12.0187 6.82016 11.7638 6.49902 11.4424C6.17789 11.1211 5.92322 10.7396 5.74957 10.3198C5.57592 9.90003 5.4867 9.45012 5.48699 8.99583C5.48699 8.07878 5.85128 7.1993 6.49973 6.55085C7.14818 5.9024 8.02767 5.53811 8.94471 5.53811C9.86175 5.53811 10.7412 5.9024 11.3897 6.55085C12.0381 7.1993 12.4024 8.07878 12.4024 8.99583C12.4024 9.91305 12.0383 10.7928 11.3899 11.4416C10.7416 12.0904 9.86222 12.4553 8.94499 12.4561ZM34.2727 34.275H28.3137V24.9412C28.3137 22.7144 28.2701 19.8514 25.2127 19.8514C22.1077 19.8514 21.6346 22.2764 21.6346 24.7797V34.2755H15.671V15.0806H21.3943V17.7017H21.4759C22.2725 16.1934 24.2188 14.6018 27.1215 14.6018C33.1582 14.6018 34.2733 18.576 34.2733 23.7462V34.275H34.2727Z" fill="#0D8BFF"/>
</svg>
