<?xml version="1.0" encoding="utf-8"?>
<!-- Generator: Adobe Illustrator 23.0.2, SVG Export Plug-In . SVG Version: 6.00 Build 0)  -->
<svg version="1.1" id="Layer_1" xmlns="http://www.w3.org/2000/svg" xmlns:xlink="http://www.w3.org/1999/xlink" x="0px" y="0px"
	 viewBox="0 0 85.6 52.8" style="enable-background:new 0 0 85.6 52.8;" xml:space="preserve">
<style type="text/css">
	.st0{fill-rule:evenodd;clip-rule:evenodd;fill:#FFFFFF;}
</style>
<path class="st0" d="M39.2,41c2.6,0,5.2,0,7.8-0.1c1.1-4.9,2.2-9.9,3.3-14.8c2.3,4.1,4.4,8.2,6.8,12.2c2.5,4.1,5.6,3.8,7.8,0.5
	c2.7-4,4.6-8.5,6.8-12.7l2.6,10.9l0.4,1.8l0.5,2c2.8,0,5.5-0.1,8.3-0.1c-1.3-5-2.5-10.1-3.8-15.2l-0.2-0.7c-0.8-3-1.6-5.9-2.5-8.8
	c-1.2-3.6-4.6-5.2-7.2-1.9c-3.7,4.6-5.7,10.4-8.5,15.6c-2.8-4.9-5.6-9.8-8.3-14.8c-1.4-2.6-3.7-2.8-6-1.8c-0.8,0.4-1,0.8-0.8,1.7
	c1.9,8.6-0.2,16.7-6.1,23.6C39.5,39.2,38.7,40.1,39.2,41 M80.8,47.5h-4.3v1.7h3.8c0.6,0,0.9,0.1,1.1,0.3c0.2,0.2,0.3,0.6,0.3,1.1
	v0.7c0,0.6-0.1,1-0.3,1.2c-0.2,0.2-0.6,0.3-1.1,0.3h-3.6c-0.6,0-0.9-0.1-1.1-0.3s-0.3-0.6-0.3-1.2v-0.2l0.9-0.2v1h4.6v-1.8h-3.8
	c-0.6,0-0.9-0.1-1.1-0.3s-0.3-0.6-0.3-1.1v-0.5c0-0.6,0.1-0.9,0.3-1.1c0.2-0.2,0.6-0.3,1.1-0.3h3.3c0.6,0,0.9,0.1,1.1,0.3
	s0.3,0.5,0.3,1v0.1l-0.9,0.3L80.8,47.5L80.8,47.5z M67.2,52.8v-6.1h5.9v0.8h-4.9v1.7h3V50h-3V52h4.9v0.8H67.2z M63,52.8v-6.1h1v6.1
	H63z M54,52.8v-6.1h4.9c0.5,0,0.8,0.1,1,0.3s0.3,0.5,0.3,0.9v1.4c0,0.4-0.1,0.7-0.3,0.9c-0.2,0.2-0.5,0.3-1,0.3H58l2.8,2.4h-1.5
	l-2.5-2.4H55v2.4L54,52.8L54,52.8z M58.5,47.5H55v2.2h3.5c0.3,0,0.4,0,0.5-0.1s0.1-0.3,0.1-0.5v-0.9c0-0.2,0-0.4-0.1-0.5
	C58.9,47.5,58.7,47.5,58.5,47.5z M49.4,47.5v5.3h-1v-5.3h-2.8v-0.8h6.6v0.8C52.2,47.5,49.4,47.5,49.4,47.5z M43,47.5h-4.3v1.7h3.8
	c0.5,0,0.9,0.1,1.1,0.3s0.3,0.6,0.3,1.1v0.7c0,0.6-0.1,1-0.3,1.2s-0.6,0.3-1.1,0.3h-3.6c-0.5,0-0.9-0.1-1.1-0.3s-0.3-0.6-0.3-1.2
	v-0.2l1-0.2v1H43v-1.8h-3.8c-0.6,0-0.9-0.1-1.1-0.3s-0.3-0.6-0.3-1.1v-0.5c0-0.6,0.1-0.9,0.3-1.1c0.2-0.2,0.6-0.3,1.1-0.3h3.3
	c0.5,0,0.9,0.1,1.1,0.3c0.2,0.2,0.3,0.5,0.3,1v0.1L43,48.4L43,47.5L43,47.5z M29.1,46.7V52h4.5v-5.3h1v4.7c0,0.6-0.1,1-0.3,1.2
	s-0.6,0.3-1.1,0.3h-3.6c-0.5,0-0.9-0.1-1.1-0.3c-0.2-0.2-0.3-0.6-0.3-1.1v-4.7H29.1z M21.9,46.7c0.6,0,1,0,1.4,0.1
	c0.4,0.1,0.7,0.2,1,0.4c0.4,0.3,0.7,0.6,0.9,1.1s0.3,1,0.3,1.5c0,0.6-0.1,1.1-0.3,1.5s-0.5,0.8-0.9,1.1c-0.3,0.2-0.6,0.3-0.9,0.4
	c-0.4,0.1-0.8,0.1-1.4,0.1h-3.4v-6.1H21.9z M21.8,47.5h-2.2V52h2.2c1,0,1.7-0.2,2.1-0.5c0.4-0.3,0.6-0.9,0.6-1.7
	c0-0.8-0.2-1.3-0.6-1.7C23.4,47.7,22.7,47.5,21.8,47.5z M8.6,52.8v-6.1h0.6l4.6,4.1c0.1,0.1,0.2,0.2,0.3,0.3
	c0.1,0.1,0.2,0.3,0.4,0.4c0-0.2-0.1-0.4-0.1-0.6c0-0.2,0-0.5,0-0.9v-3.4h0.9v6.1h-0.6l-4.7-4.3c0,0-0.1,0-0.1-0.1
	c-0.2-0.2-0.4-0.4-0.5-0.6c0,0.2,0,0.4,0.1,0.6s0,0.5,0,0.7v3.6L8.6,52.8L8.6,52.8z M4.4,52.8v-6.1h1v6.1H4.4z M22.6,2.1
	c0.3,0,0.5,0.2,0.5,0.5C23,2.8,22.8,3,22.6,3c-0.3,0-0.5-0.2-0.5-0.5S22.3,2.1,22.6,2.1z M19.8,2c0.2,0,0.4,0.2,0.4,0.4
	c0,0.2-0.2,0.4-0.4,0.4s-0.4-0.2-0.4-0.4C19.4,2.2,19.6,2,19.8,2z M24.9,2.9c0.3,0,0.6,0.3,0.6,0.6c0,0.3-0.3,0.6-0.6,0.6
	c-0.3,0-0.6-0.2-0.6-0.6S24.6,2.9,24.9,2.9z M26.9,2c0.3,0,0.6,0.3,0.6,0.6c0,0.3-0.3,0.6-0.6,0.6c-0.3,0-0.6-0.3-0.6-0.6
	S26.6,2,26.9,2z M28,3.4c0.3,0,0.6,0.3,0.6,0.6S28.3,4.5,28,4.5c-0.3,0-0.6-0.3-0.6-0.6C27.5,3.7,27.7,3.4,28,3.4z M34.9,4.4
	c0.3,0,0.5,0.3,0.5,0.6s-0.3,0.6-0.5,0.6c-0.3,0-0.6-0.3-0.6-0.6C34.3,4.7,34.6,4.4,34.9,4.4z M37.2,4.6c0.5,0,1,0.4,1,0.9
	c0,0.5-0.4,0.9-1,0.9c-0.5,0-1-0.4-1-0.9S36.7,4.6,37.2,4.6z M31,3.5c0.5,0.1,1.1,0.2,1.6,0c0.1-0.1,0.2-0.1,0.4-0.1
	c0.3,0,0.6,0.3,0.6,0.6c0,0.3-0.3,0.6-0.6,0.6c-0.5,0-0.6-0.9-2-0.3c-0.2,0.1-0.3,0.4-0.6,0.4c-0.3,0-0.7-0.3-0.7-0.7
	c0-0.4,0.3-0.7,0.7-0.7C30.7,3.1,30.9,3.3,31,3.5z M32.5,6c0.2,0.5,0.6,0.7,1,0.8c0.3-0.2,0.6-0.4,0.9-0.4c0.8,0,1.4,0.6,1.4,1.4
	s-0.6,1.4-1.4,1.4S33,8.6,33,7.8c0-1.1-0.1-1-1.1-1c-0.4,0-0.6-0.3-0.6-0.6s0.3-0.6,0.6-0.6C32.2,5.5,32.5,5.7,32.5,6z M3.6,20
	c1.7-2.4,3.3-4.7,5-7.1c5.7,0,8.6,0.1,14.3,0c13.6-0.1,15.2,10.3,10.4,16.4c2.8-2.9,4.9-6,5.7-9.7c0.7-2.9,0.3-5.6-1.1-7.6
	c-0.6-0.7-1.1-1.4-1.7-2.2c-0.4-0.5-0.3-1.3,0.2-1.7c0.5-0.4,1.3-0.3,1.8,0.2c0.4,0.5,0.7,0.9,1.1,1.4c0.1,0,0.1-0.1,0.2-0.1
	c-0.2-0.2-0.2-0.5-0.2-0.7c0-1.3,1.5-1.6,2.3-0.8c8.1,8.3-1,20.2-8.4,25.3C20.9,42,10.2,44.8,0,45.6c10.7-1.1,20.8-5.9,30.3-13.5
	l0.1-0.1c-1.8,1.1-3.9,1.7-6.2,1.7c-4.3-0.1-8.6,0-12.9,0c0,2.4,0,4.7,0,7.1c-2.5,0-5,0-7.5,0c0-4.7,0-9.5,0-14.2h21.8
	c4.1,0,4.5-6.5,0-6.5L3.6,20L3.6,20z"/>
</svg>
