<svg width="44" height="35" viewBox="0 0 44 35" fill="none" xmlns="http://www.w3.org/2000/svg">
<path d="M43.1163 4.13843C41.5056 4.85197 39.7971 5.32009 38.0477 5.52722C39.8904 4.42468 41.2693 2.68976 41.9275 0.645796C40.1955 1.67401 38.3002 2.39804 36.3238 2.78652C35.498 1.90577 34.5002 1.20399 33.3921 0.724674C32.284 0.245353 31.0893 -0.00129835 29.882 5.13958e-06C25.0084 5.13958e-06 21.0566 3.95073 21.0566 8.82544C21.0566 9.51648 21.1348 10.1908 21.2857 10.8371C13.9507 10.469 7.44807 6.95511 3.09512 1.61504C2.31027 2.96197 1.89785 4.49343 1.90019 6.05234C1.89903 7.50538 2.25681 8.9362 2.94175 10.2177C3.62668 11.4992 4.61756 12.5916 5.82633 13.3979C4.42509 13.3534 3.05473 12.975 1.82924 12.2941C1.82812 12.3309 1.82812 12.3672 1.82812 12.4052C1.82812 16.68 4.86993 20.2469 8.90668 21.0586C7.60686 21.4105 6.24403 21.4621 4.92133 21.2094C6.0442 24.7149 9.30332 27.2674 13.1652 27.3389C10.039 29.7922 6.17856 31.1229 2.20465 31.117C1.49238 31.117 0.790162 31.0756 0.0991211 30.9935C4.13439 33.5863 8.83079 34.9625 13.6272 34.9576C29.8603 34.9576 38.7371 21.5105 38.7371 9.84944C38.7371 9.46732 38.7282 9.08577 38.7114 8.70645C40.4401 7.45839 41.9319 5.91139 43.1163 4.13843Z" fill="#0D8BFF"/>
</svg>
